# xmcd
#
# Track frame offsets:
#	150
#	12588
#	24362
#	37393
#	48044
#	59487
#	71287
#	84646
#	98241
#	111513
#	124145
#	137414
#	149615
#	162434
#	174123
#	187339
#	200331
#	212562
#	224622
#	238001
#	249407
#	262931
#	275248
#	288234
#	299708
#
# Disc length: 4163 seconds
#
# Revision: 1
# Processed by: cddbd v1.5.2PL0 Copyright (c) Steve Scherf et al.
# Submitted via: audiograbber 1.83.01
#
DISCID=8e104119
DTITLE=The Delmore Brothers - More from the 1930s plus the 1940s and 1950s, Cd 
DTITLE=A
DYEAR=2008
DGENRE=Country
TTITLE0=I Got the Kansas City Blues
TTITLE1=Keep the Camp Fires Burning
TTITLE2=Alabama Lullaby
TTITLE3='Cause I Don't Mean to Cry When You're Gone
TTITLE4=Git Along
TTITLE5=I Wonder Where My Darling Is Tonight
TTITLE6=My Heart Will Be Crying
TTITLE7=Someday You'll Pay
TTITLE8=Take It to the Captain
TTITLE9=Boogie Woogie Baby
TTITLE10=Born to Be Blue
TTITLE11=Weary Day
TTITLE12=Darby's Ram
TTITLE13=Take It Out on the Door
TTITLE14=Gotta Have Some Lovin'
TTITLE15=Pan American Boogie
TTITLE16=Sand Mountain Blues
TTITLE17=I Swear by the Stars
TTITLE18=Life's Too Short
TTITLE19=Blues You Never Lose
TTITLE20=Field Hand Man
TTITLE21=I'll Be There
TTITLE22=Heartbreak Ridge
TTITLE23=How You Gonna Get Your Lovin' Done
TTITLE24=I Said Goodnight to My Darling
EXTD=
EXTT0=
EXTT1=
EXTT2=
EXTT3=
EXTT4=
EXTT5=
EXTT6=
EXTT7=
EXTT8=
EXTT9=
EXTT10=
EXTT11=
EXTT12=
EXTT13=
EXTT14=
EXTT15=
EXTT16=
EXTT17=
EXTT18=
EXTT19=
EXTT20=
EXTT21=
EXTT22=
EXTT23=
EXTT24=
PLAYORDER=
